<svg xmlns="http://www.w3.org/2000/svg" viewBox="-49 226.334 512 341.34"><path fill="#f0f0f0" d="M-49 226.337h512v341.337H-49z"/><path fill="#d80027" d="M239 226.334h-64V365H-49v64h224v138.666h64V429h224v-64H239z"/><path d="M344.785 456.362L463 522.038v-65.676zm-82.133 0L463 567.666v-31.474l-143.693-79.83zm146.982 111.304l-146.982-81.664v81.664z" fill="#0052b4"/><path fill="#f0f0f0" d="M262.652 456.362L463 567.666v-31.474l-143.693-79.83z"/><path fill="#d80027" d="M262.652 456.362L463 567.666v-31.474l-143.693-79.83z"/><path d="M41.341 456.36L-49 506.55v-50.19zm110.007 14.154v97.151H-23.509z" fill="#0052b4"/><path fill="#d80027" d="M94.693 456.362L-49 536.192v31.474l200.348-111.304z"/><path d="M69.215 337.638L-49 271.962v65.676zm82.133 0L-49 226.334v31.474l143.693 79.83zM4.366 226.334l146.982 81.664v-81.664z" fill="#0052b4"/><path fill="#f0f0f0" d="M151.348 337.638L-49 226.334v31.474l143.693 79.83z"/><path fill="#d80027" d="M151.348 337.638L-49 226.334v31.474l143.693 79.83z"/><path d="M372.659 337.64L463 287.45v50.19zm-110.007-14.154v-97.151h174.857z" fill="#0052b4"/><path fill="#d80027" d="M319.307 337.638L463 257.808v-31.474L262.652 337.638z"/></svg>