<?xml version="1.0" standalone="no"?>
<!DOCTYPE svg PUBLIC "-//W3C//DTD SVG 20010904//EN"
 "http://www.w3.org/TR/2001/REC-SVG-20010904/DTD/svg10.dtd">
<svg version="1.0" xmlns="http://www.w3.org/2000/svg"
 width="878.000000pt" height="878.000000pt" viewBox="0 0 878.000000 878.000000"
 preserveAspectRatio="xMidYMid meet">
<metadata>
Created by potrace 1.11, written by Peter Selinger 2001-2013
</metadata>
<g transform="translate(0.000000,878.000000) scale(0.100000,-0.100000)"
fill="#000000" stroke="none">
<path d="M1705 8528 c-600 -67 -1103 -368 -1392 -833 -155 -248 -252 -531
-294 -860 -20 -148 -17 -541 5 -690 47 -334 151 -618 315 -866 175 -265 381
-446 671 -592 324 -163 633 -225 1069 -214 357 9 605 63 876 191 305 145 518
328 700 601 212 317 320 679 341 1144 l7 154 64 29 c137 62 335 85 489 57 72
-13 214 -67 219 -82 1 -7 8 -97 14 -202 21 -366 76 -595 211 -870 187 -384
447 -645 820 -824 294 -141 583 -201 965 -201 382 0 670 60 965 201 371 178
630 438 814 819 103 211 162 420 198 690 16 125 16 527 0 656 -54 427 -202
784 -443 1071 -144 171 -317 304 -539 416 -304 153 -596 217 -995 217 -399 0
-691 -64 -995 -217 -359 -181 -619 -445 -796 -808 -51 -106 -134 -332 -134
-367 0 -28 -15 -29 -92 -8 -259 73 -592 62 -823 -26 -8 -3 -18 19 -30 63 -96
362 -309 705 -574 925 -281 233 -618 373 -1021 423 -137 17 -480 19 -615 3z
m567 -787 c176 -46 277 -102 393 -216 170 -168 268 -395 311 -719 23 -172 15
-546 -15 -702 -70 -375 -238 -629 -495 -754 -142 -70 -237 -91 -426 -97 -325
-11 -542 67 -727 260 -209 218 -304 527 -304 993 0 331 43 558 144 759 140
280 342 432 651 491 107 20 369 12 468 -15z m4786 0 c327 -82 549 -316 652
-685 88 -316 85 -799 -6 -1113 -58 -201 -135 -333 -267 -460 -68 -66 -104 -91
-188 -132 -166 -82 -236 -96 -474 -95 -236 0 -298 13 -461 94 -293 144 -462
439 -515 899 -17 156 -7 516 20 657 91 485 347 771 758 849 113 21 370 14 481
-14z"/>
<path d="M1949 7230 c-108 -19 -213 -100 -265 -206 -26 -53 -29 -69 -29 -154
0 -85 3 -101 29 -154 136 -276 523 -282 657 -10 133 270 -95 576 -392 524z"/>
<path d="M6710 7227 c-138 -32 -235 -123 -274 -256 -30 -102 -14 -210 46 -303
108 -171 354 -215 521 -93 197 145 197 445 0 590 -84 61 -194 84 -293 62z"/>
<path d="M3606 4315 c-52 -18 -106 -64 -133 -111 -27 -46 -31 -139 -9 -182 8
-15 156 -205 330 -422 l316 -395 0 -336 c0 -326 -1 -337 -24 -405 -156 -459
-656 -713 -1118 -568 -101 32 -183 72 -263 129 -115 82 -237 230 -291 352 -31
70 -74 217 -74 254 0 15 -4 30 -9 33 -5 3 -123 -5 -262 -19 -140 -14 -259 -25
-266 -25 -13 0 -11 -26 14 -155 24 -124 68 -247 134 -375 270 -523 842 -833
1424 -771 98 11 242 39 287 56 15 6 17 -18 20 -282 5 -312 8 -336 73 -463 157
-308 522 -457 856 -349 217 70 401 269 459 495 18 68 20 111 20 351 0 150 2
273 5 273 3 0 47 -11 99 -25 52 -13 134 -29 183 -36 124 -16 393 -6 504 20
280 64 511 192 714 396 212 212 350 476 399 764 9 52 15 95 13 96 -3 2 -509
55 -523 55 -7 0 -20 -35 -29 -77 -69 -314 -284 -563 -577 -668 -125 -44 -224
-59 -356 -52 -352 18 -660 240 -795 572 l-32 80 -3 322 -3 322 34 38 c84 94
639 798 648 821 41 106 -5 216 -115 275 l-41 22 -785 2 c-650 2 -792 0 -824
-12z"/>
</g>
</svg>
