<?xml version="1.0" encoding="iso-8859-1"?>
<!-- Generator: Adobe Illustrator 22.1.0, SVG Export Plug-In . SVG Version: 6.00 Build 0)  -->
<svg version="1.1" id="Capa_1" xmlns="http://www.w3.org/2000/svg" xmlns:xlink="http://www.w3.org/1999/xlink" x="0px" y="0px"
	 viewBox="-49 226.334 512 341.34" style="enable-background:new -49 226.334 512 341.34;" xml:space="preserve">
<rect x="-49" y="226.337" style="fill:#F0F0F0;" width="512" height="341.337"/>
<polygon style="fill:#D80027;" points="239,226.334 175,226.334 175,365 -49,365 -49,429 175,429 175,567.666 239,567.666 239,429 
	463,429 463,365 239,365 "/>
<g>
	<polygon style="fill:#0052B4;" points="344.785,456.362 463,522.038 463,456.362 	"/>
	<polygon style="fill:#0052B4;" points="262.652,456.362 463,567.666 463,536.192 319.307,456.362 	"/>
	<polygon style="fill:#0052B4;" points="409.634,567.666 262.652,486.002 262.652,567.666 	"/>
</g>
<polygon style="fill:#F0F0F0;" points="262.652,456.362 463,567.666 463,536.192 319.307,456.362 "/>
<polygon style="fill:#D80027;" points="262.652,456.362 463,567.666 463,536.192 319.307,456.362 "/>
<g>
	<polygon style="fill:#0052B4;" points="41.341,456.36 -49,506.55 -49,456.36 	"/>
	<polygon style="fill:#0052B4;" points="151.348,470.514 151.348,567.665 -23.509,567.665 	"/>
</g>
<polygon style="fill:#D80027;" points="94.693,456.362 -49,536.192 -49,567.666 -49,567.666 151.348,456.362 "/>
<g>
	<polygon style="fill:#0052B4;" points="69.215,337.638 -49,271.962 -49,337.638 	"/>
	<polygon style="fill:#0052B4;" points="151.348,337.638 -49,226.334 -49,257.808 94.693,337.638 	"/>
	<polygon style="fill:#0052B4;" points="4.366,226.334 151.348,307.998 151.348,226.334 	"/>
</g>
<polygon style="fill:#F0F0F0;" points="151.348,337.638 -49,226.334 -49,257.808 94.693,337.638 "/>
<polygon style="fill:#D80027;" points="151.348,337.638 -49,226.334 -49,257.808 94.693,337.638 "/>
<g>
	<polygon style="fill:#0052B4;" points="372.659,337.64 463,287.45 463,337.64 	"/>
	<polygon style="fill:#0052B4;" points="262.652,323.486 262.652,226.335 437.509,226.335 	"/>
</g>
<polygon style="fill:#D80027;" points="319.307,337.638 463,257.808 463,226.334 463,226.334 262.652,337.638 "/>
</svg>
