<?xml version="1.0" encoding="utf-8"?>
<!-- Generator: Adobe Illustrator 22.1.0, SVG Export Plug-In . SVG Version: 6.00 Build 0)  -->
<svg version="1.1" id="Warstwa_1" xmlns="http://www.w3.org/2000/svg" xmlns:xlink="http://www.w3.org/1999/xlink" x="0px" y="0px"
	 viewBox="0 0 11811 10629.1" style="enable-background:new 0 0 11811 10629.1;" xml:space="preserve">
<g id="Warstwa_x0020_1">
	<g id="_2906183557744">
		<g>
			<g>
				<path d="M11024,0H1969c-435,0-788,352-788,787v6299H197c-109,0-197,88-197,197c0,435,353,787,787,787h5709v2363
					c0,108,88,196,197,196c52,0,102-20,139-57l1042-1042l1042,1042c37,37,87,57,139,57c26,1,52-5,75-15c74-30,122-102,122-181V8070
					h590c435,0,788-352,788-787V984h984c109,0,197-88,197-197C11811,352,11458,0,11024,0z M10236,787v6299h-787v394h734
					c-70,122-200,197-341,197h-590v-197h-394v2477l-845-845c-77-77-201-77-278,0l-845,845V7480h-394v197H787c-140,0-270-75-340-197
					h931h4921v-394H1575V787c0-217,176-394,394-394h8377C10275,512,10237,648,10236,787z M10683,590c109-188,350-252,538-143
					c59,34,109,84,143,143H10683z"/>
			</g>
		</g>
		<g>
			<g>
				<path d="M9730,6160l-252-452l253-451c53-95,19-215-75-268c-5-3-10-5-15-8l-470-215l-60-514c-13-108-111-185-219-172
					c-5,1-10,1-15,2l-508,101l-351-380c-78-80-206-81-286-2c-1,0-2,1-2,2l-351,380l-508-101c-107-21-210,49-231,155c-1,5-2,10-3,15
					l-60,514l-470,216c-99,45-142,162-97,261c2,5,5,9,7,14l253,451l-253,452c-53,94-19,214,75,268c5,2,10,5,15,7l470,216l60,514
					c13,108,111,185,219,172c5,0,10-1,15-2l508-101l351,380c73,80,198,85,278,11c3-3,7-7,10-11l351-380l508,101c54,11,110-2,154-34
					c44-33,72-82,79-136l60-514l470-215c99-46,142-163,97-261C9735,6170,9732,6165,9730,6160z M9080,5804l203,362l-377,172
					c-62,29-105,88-113,156l-48,412l-407-80c-67-14-137,8-183,59l-281,304l-281-304c-37-40-90-63-145-63c-12,0-25,1-38,4l-407,80
					l-48-412c-8-68-51-127-113-155l-377-173l203-362c34-60,34-132,0-192v1l-203-362l377-172c62-29,105-88,113-156l48-412l407,80
					c67,14,137-8,183-59l281-305l281,304c46,51,116,73,183,59l407-80l48,412c8,68,51,127,113,156l377,172l-203,362
					C9047,5672,9047,5744,9080,5804z"/>
			</g>
		</g>
		<g>
			<g>
				<path d="M7874,4724c-544,0-984,441-984,984c0,544,441,984,984,984c544,0,984-440,984-984C8858,5165,8418,4724,7874,4724z
					 M7874,6299c-326,0-591-265-591-591s265-590,591-590s591,264,591,590S8200,6299,7874,6299z"/>
			</g>
		</g>
		<g>
			<g>
				<rect x="4331" y="1181" width="3150" height="394"/>
			</g>
		</g>
		<g>
			<g>
				<rect x="2362" y="2362" width="7087" height="394"/>
			</g>
		</g>
		<g>
			<g>
				<rect x="2362" y="3149" width="7087" height="394"/>
			</g>
		</g>
		<g>
			<g>
				<rect x="2559" y="5708" width="2559" height="394"/>
			</g>
		</g>
	</g>
</g>
</svg>
