<?xml version="1.0" encoding="utf-8"?>
<!-- Generator: Adobe Illustrator 22.1.0, SVG Export Plug-In . SVG Version: 6.00 Build 0)  -->
<svg version="1.1" id="Warstwa_1" xmlns="http://www.w3.org/2000/svg" xmlns:xlink="http://www.w3.org/1999/xlink" x="0px" y="0px"
	 viewBox="0 0 11811 11811" style="enable-background:new 0 0 11811 11811;" xml:space="preserve">
<g id="Warstwa_x0020_1">
	<g id="_2907590533648">
		<g>
			<path d="M5906,0C2649,0,0,2649,0,5905c0,3257,2649,5906,5906,5906c3256,0,5905-2649,5905-5906C11811,2649,9162,0,5906,0z
				 M5906,11417c-3040,0-5512-2472-5512-5512c0-3039,2472-5511,5512-5511c3039,0,5511,2472,5511,5511
				C11417,8945,8945,11417,5906,11417z"/>
			<path d="M6102,5122V3126c0-109-88-197-196-197c-109,0-197,88-197,197v1996c-276,72-491,287-563,563H3740c-109,0-197,88-197,197
				s88,197,197,197h1406c88,338,394,590,760,590c434,0,787-353,787-787C6693,5516,6441,5210,6102,5122z M5906,6275
				c-218,0-394-176-394-393s176-394,394-394c217,0,393,177,393,394S6123,6275,5906,6275z"/>
			<path d="M5906,1945c108,0,196-88,196-197v-197c0-109-88-197-196-197c-109,0-197,88-197,197v197C5709,1857,5797,1945,5906,1945z"
				/>
			<path d="M5906,9819c-109,0-197,88-197,197v196c0,109,88,197,197,197c108,0,196-88,196-197v-196C6102,9907,6014,9819,5906,9819z"
				/>
			<path d="M10236,5685h-197c-108,0-197,88-197,197s89,197,197,197h197c109,0,197-88,197-197S10345,5685,10236,5685z"/>
			<path d="M1772,5685h-197c-109,0-197,88-197,197s88,197,197,197h197c108,0,197-88,197-197S1880,5685,1772,5685z"/>
			<path d="M8829,2680l-140,139c-77,77-77,202,0,279c39,38,89,57,140,57c50,0,100-19,139-57l139-140c77-77,77-201,0-278
				S8905,2603,8829,2680z"/>
			<path d="M2843,8666l-139,139c-77,77-77,201,0,278c39,38,89,58,139,58c51,0,101-20,139-58l140-139c77-77,77-201,0-278
				S2920,8589,2843,8666z"/>
			<path d="M8968,8666c-77-77-202-77-279,0s-77,201,0,278l140,139c38,38,88,58,139,58c50,0,100-20,139-58c77-77,77-201,0-278
				L8968,8666z"/>
			<path d="M2982,2680c-76-77-201-77-278,0s-77,201,0,278l139,140c39,38,89,57,139,57c51,0,101-19,140-57c77-77,77-202,0-279
				L2982,2680z"/>
		</g>
	</g>
</g>
</svg>
