<?xml version="1.0" encoding="utf-8"?>
<!-- Generator: Adobe Illustrator 22.1.0, SVG Export Plug-In . SVG Version: 6.00 Build 0)  -->
<svg version="1.1" id="Warstwa_1" xmlns="http://www.w3.org/2000/svg" xmlns:xlink="http://www.w3.org/1999/xlink" x="0px" y="0px"
	 viewBox="0 0 99.2 89.6" style="enable-background:new 0 0 99.2 89.6;" xml:space="preserve">
<style type="text/css">
	.st0{fill-rule:evenodd;clip-rule:evenodd;}
</style>
<g>
	<path class="st0" d="M89.6,0h-80C4.3,0,0,4.3,0,9.6c0,5.3,4.3,9.6,9.6,9.6h80c5.3,0,9.6-4.3,9.6-9.6C99.2,4.3,94.9,0,89.6,0L89.6,0
		z"/>
	<path class="st0" d="M89.6,35.2h-80c-5.3,0-9.6,4.3-9.6,9.6c0,5.3,4.3,9.6,9.6,9.6h80c5.3,0,9.6-4.3,9.6-9.6
		C99.2,39.5,94.9,35.2,89.6,35.2L89.6,35.2z"/>
	<path class="st0" d="M89.6,70.4h-80C4.3,70.4,0,74.7,0,80c0,5.3,4.3,9.6,9.6,9.6h80c5.3,0,9.6-4.3,9.6-9.6
		C99.2,74.7,94.9,70.4,89.6,70.4L89.6,70.4z"/>
</g>
</svg>
