<?xml version="1.0" encoding="utf-8"?>
<!-- Generator: Adobe Illustrator 22.1.0, SVG Export Plug-In . SVG Version: 6.00 Build 0)  -->
<svg version="1.1" id="Warstwa_1" xmlns="http://www.w3.org/2000/svg" xmlns:xlink="http://www.w3.org/1999/xlink" x="0px" y="0px"
	 viewBox="0 0 11535.1 11811" style="enable-background:new 0 0 11535.1 11811;" xml:space="preserve">
<g id="Warstwa_x0020_1">
	<path d="M5913,6949c-1922,0-3476-1552-3476-3475C2437,1550,3991,0,5913,0c1921,0,3476,1552,3476,3476
		C9389,5399,7836,6949,5913,6949z M5913,369c-1719,0-3105,1386-3105,3105c0,1718,1386,3104,3105,3104c1718,0,3104-1386,3104-3104
		C9017,1755,7633,369,5913,369z"/>
	<path d="M5913,3309c-240,0-445-203-445-442c0-240,203-443,445-443s445,203,445,443h369c0-389-277-702-628-795v-296h-370v296
		c-369,93-628,406-628,795c0,442,369,814,814,814c240,0,445,203,445,444c0,242-203,443-445,443c-240,0-445-203-445-443h-369
		c0,389,276,702,628,795v259h370v-259c369-93,628-406,628-795C6727,3679,6358,3309,5913,3309z"/>
	<path d="M868,7949h369v-369H868V7949z M868,8983h369v-369H868V8983z M868,10019h369v-369H868V10019z M11459,8447
		c-186-388-628-572-1017-425l-2513,851c19-56,19-130,19-203c0-482-388-868-867-868H5213c-56,0-129-19-185-37l-1203-628l-19-19
		c-110-37-222-57-333-57H2124v-498H0v4417h2126v-389h462l3439,1147c129,36,259,73,406,73c203,0,406-56,591-149l4085-2163
		C11478,9317,11644,8853,11459,8447z M1755,10628v19H369V6949h1386V10628L1755,10628z M10923,9205l-4084,2144
		c-222,110-481,129-721,56l-3493-1164h-518V7450h1349c73,0,130,19,203,37l1202,628l20,19c92,37,203,56,315,56h1867
		c276,0,499,223,499,499c0,147-74,277-166,369l-352,130H5528c-388,0-702,315-702,702h370c0-186,147-333,332-333h1535
		c186,0,352-56,499-166l2977-1017c222-73,462,19,554,240C11219,8817,11146,9095,10923,9205z"/>
	<polygon points="7448,3679 7817,3679 7817,3273 7448,3273 	"/>
	<polygon points="4011,3679 4380,3679 4380,3273 4011,3273 	"/>
	<g id="_2906178027136">
	</g>
	<g id="_2906178027328">
	</g>
	<g id="_2906178025984">
	</g>
	<g id="_2906178024256">
	</g>
	<g id="_2906178025760">
	</g>
	<g id="_2906178024128">
	</g>
	<g id="_2906178024000">
	</g>
	<g id="_2906178024896">
	</g>
	<g id="_2906178024768">
	</g>
	<g id="_2906178024800">
	</g>
	<g id="_2906178023744">
	</g>
	<g id="_2906178023552">
	</g>
	<g id="_2906178023616">
	</g>
	<g id="_2906178022912">
	</g>
	<g id="_2906178023104">
	</g>
</g>
</svg>
