<?xml version="1.0" encoding="utf-8"?>
<!-- Generator: Adobe Illustrator 22.1.0, SVG Export Plug-In . SVG Version: 6.00 Build 0)  -->
<svg version="1.1" id="Capa_1" xmlns="http://www.w3.org/2000/svg" xmlns:xlink="http://www.w3.org/1999/xlink" x="0px" y="0px"
	 viewBox="0 0 14.5 13.3" style="enable-background:new 0 0 14.5 13.3;" xml:space="preserve">
<g>
	<g>
		<path d="M14.5,4.7c0-2.6-2.1-4.7-4.6-4.7C9.6,0,9.3,0,9,0.1c-0.2,0-0.3,0.1-0.5,0.1l1.3,4.6L14.5,4.7L14.5,4.7z"/>
		<path d="M4.2,5.4c0-0.4-0.1-0.9-0.6-1.5C3.2,3.3,2.5,3,1.6,2.8C1.5,2.6,1.3,2.6,1.2,2.6H0.6C0.3,2.6,0,2.8,0,3.1s0.3,0.6,0.6,0.6
			h0.6c0.1,0,0.3-0.1,0.4-0.1C2.2,3.7,2.7,4,3,4.4c0.3,0.4,0.4,0.7,0.4,1h0c0,2.5,2.5,4.5,5.5,4.5c3.1,0,5.5-2,5.5-4.5
			C14.5,5.4,4.2,5.4,4.2,5.4z"/>
		<path d="M6.8,10.1c-0.9,0-1.6,0.7-1.6,1.6c0,0.9,0.7,1.6,1.6,1.6s1.6-0.7,1.6-1.6S7.6,10.1,6.8,10.1z M6.8,12.5
			c-0.4,0-0.8-0.3-0.8-0.8c0-0.4,0.3-0.8,0.8-0.8s0.8,0.3,0.8,0.8C7.5,12.1,7.2,12.5,6.8,12.5z"/>
		<path d="M11,10.1c-0.9,0-1.6,0.7-1.6,1.6c0,0.9,0.7,1.6,1.6,1.6c0.9,0,1.6-0.7,1.6-1.6S11.9,10.1,11,10.1z M11,12.5
			c-0.4,0-0.8-0.3-0.8-0.8c0-0.4,0.3-0.8,0.8-0.8s0.8,0.3,0.8,0.8C11.8,12.1,11.5,12.5,11,12.5z"/>
	</g>
</g>
</svg>
