<?xml version="1.0" encoding="utf-8"?>
<!-- Generator: Adobe Illustrator 22.1.0, SVG Export Plug-In . SVG Version: 6.00 Build 0)  -->
<svg version="1.1" id="Warstwa_1" xmlns="http://www.w3.org/2000/svg" xmlns:xlink="http://www.w3.org/1999/xlink" x="0px" y="0px"
	 viewBox="0 0 11811 8465" style="enable-background:new 0 0 11811 8465;" xml:space="preserve">
<g id="Warstwa_x0020_1">
	<g id="_2906182780320">
		<g>
			<g>
				<path d="M2756,6103c-651,0-1181,529-1181,1181c0,651,530,1181,1181,1181s1181-530,1181-1181C3937,6632,3407,6103,2756,6103z
					 M2756,8071c-434,0-787-353-787-787c0-435,353-788,787-788s787,353,787,788C3543,7718,3190,8071,2756,8071z"/>
			</g>
		</g>
		<g>
			<g>
				<path d="M9449,6103c-652,0-1181,529-1181,1181c0,651,529,1181,1181,1181c651,0,1181-530,1181-1181
					C10630,6632,10100,6103,9449,6103z M9449,8071c-434,0-788-353-788-787c0-435,354-788,788-788s787,353,787,788
					C10236,7718,9883,8071,9449,8071z"/>
			</g>
		</g>
		<g>
			<g>
				<path d="M11780,5012l-1772-2756c-36-56-99-90-166-90H7677c-109,0-197,88-197,196v4922c0,109,88,197,197,197h788v-394h-591V2559
					h1861l1682,2617v1911h-984v394h1181c109,0,197-88,197-197V5118C11811,5081,11800,5044,11780,5012z"/>
			</g>
		</g>
		<g>
			<g>
				<path d="M8661,4725V3347h1575v-394H8465c-109,0-197,88-197,197v1771c0,109,88,197,197,197h2952v-393H8661L8661,4725z"/>
			</g>
		</g>
		<g>
			<g>
				<path d="M7677,788H197C88,788,0,876,0,984v6300c0,109,88,197,197,197h1575v-394H394V1181h7086v5906H3740v394h3937
					c109,0,197-88,197-197V984C7874,876,7786,788,7677,788z"/>
			</g>
		</g>
		<g>
			<g>
				<rect x="197" y="6299" width="1181" height="394"/>
			</g>
		</g>
		<g>
			<g>
				<rect x="4134" y="6299" width="3346" height="394"/>
			</g>
		</g>
		<g>
			<g>
				<rect x="10827" y="6299" width="787" height="394"/>
			</g>
		</g>
		<g>
			<g>
				<rect x="787" y="1575" width="6890" height="394"/>
			</g>
		</g>
		<g>
			<g>
				<rect x="2559" y="7087" width="394" height="394"/>
			</g>
		</g>
		<g>
			<g>
				<rect x="9252" y="7087" width="394" height="394"/>
			</g>
		</g>
		<g>
			<g>
				<rect x="787" width="2756" height="394"/>
			</g>
		</g>
		<g>
			<g>
				<rect width="394" height="394"/>
			</g>
		</g>
	</g>
</g>
</svg>
