<?xml version="1.0" encoding="utf-8"?>
<!-- Generator: Adobe Illustrator 22.1.0, SVG Export Plug-In . SVG Version: 6.00 Build 0)  -->
<svg version="1.1" id="Warstwa_1" xmlns="http://www.w3.org/2000/svg" xmlns:xlink="http://www.w3.org/1999/xlink" x="0px" y="0px"
	 viewBox="0 0 9774.5 11811" style="enable-background:new 0 0 9774.5 11811;" xml:space="preserve">
<g id="Warstwa_x0020_1">
	<g id="_2906178116320">
		<g>
			<g>
				<path d="M9731.8,10261l-1239-1593c401-120,748-377,980-726c292-505,160-1120,32-1715c-77-305-123-618-137-932
					c14-315,60-628,137-934c127-595,260-1210-32-1714c-302-522-910-715-1499-902c-293-80-577-191-846-331c-245-159-473-343-679-550
					c-436-405-931-864-1561-864c-631,0-1126,459-1562,864c-206,207-434,391-679,550c-269,139-553,250-846,331
					c-588,186-1197,379-1499,901c-292,505-160,1120-32,1715c77,306,123,619,137,934c-14,315-60,627-137,933
					c-127,595-260,1210,32,1714c232,349,579,606,981,725l-1240,1593c-69,89-53,217,36,286c42,33,96,48,150,42l1456-182l360,1257
					c21,74,81,130,157,144c12,3,25,4,38,4c63,0,122-29,161-79l1301-1672c320,311,740,499,1186,529c445-30,865-218,1185-529
					l1301,1672c38,50,98,79,161,79c13,0,26-1,38-4c76-14,136-70,157-144l360-1257l1456,182c112,14,213-65,227-177
					C9779.8,10357,9764.8,10303,9731.8,10261z M2325.8,11166l-297-1040c-28-97-122-159-221-146l-1141,142l1022-1313l113,36
					c293,80,576,191,845,330c245,159,473,343,679,550l70,65L2325.8,11166z M4887.8,10182c-471,0-867-367-1286-755
					c-228-228-479-431-751-604c-295-155-606-278-927-367c-538-171-1047-332-1270-718c-213-368-103-882,14-1425
					c84-334,133-675,147-1018c-14-344-63-685-147-1019c-117-543-227-1056-14-1425c224-386,732-547,1270-718c321-89,632-212,927-366
					c271-174,523-377,751-605c419-388,815-755,1286-755c470,0,866,367,1285,755c228,228,480,431,751,605c295,154,606,277,927,366
					c538,171,1047,332,1270,718c213,368,103,882-14,1425c-84,334-133,675-147,1019c14,343,63,684,147,1018c117,543,227,1057,14,1425
					c-224,386-732,547-1270,718c-321,89-632,212-927,367c-271,173-523,376-751,604C5753.8,9815,5357.8,10182,4887.8,10182z
					 M7967.8,9980c-99-13-193,49-221,146l-298,1040l-1070-1376l70-65c206-206,434-391,679-550c269-139,553-250,846-330l112-36
					l1023,1313L7967.8,9980z"/>
			</g>
		</g>
		<g>
			<g>
				<path d="M4887.8,1629c-2025,0-3666,1641-3666,3666c0,2024,1641,3665,3666,3665c2024,0,3665-1641,3665-3665
					C8550.8,3271,6910.8,1631,4887.8,1629z M4887.8,8553c-1800,0-3259-1459-3259-3258c0-1800,1459-3259,3259-3259
					c1799,0,3258,1459,3258,3259C8143.8,7093,6685.8,8551,4887.8,8553z"/>
			</g>
		</g>
		<g>
			<g>
				<path d="M7236.8,4444c-77-105-199-168-329-168h-1247l-387-1186c-70-214-300-330-514-260c-123,40-219,137-259,260l-386,1186
					h-1248c-225,0-407,183-407,407c-1,131,62,253,167,330l1009,733l-385,1187c-70,214,47,443,261,513c124,40,260,19,366-58l1010-733
					l1009,733c142,106,337,106,479,0c144-102,204-287,148-455l-386-1187l1009-733C7328.8,4881,7368.8,4626,7236.8,4444z
					 M5778.8,5504c-71,52-101,144-74,228l431,1327l-1129-820c-71-52-168-52-239,0l-1129,820l431-1327c27-84-3-176-74-228l-1129-820
					h1396c88,0,166-57,193-141l432-1327l431,1327c27,84,105,140,193,140l1396,1L5778.8,5504z"/>
			</g>
		</g>
	</g>
</g>
</svg>
